<?xml version="1.0" encoding="utf-8"?>
<!-- Generator: Adobe Illustrator 16.0.0, SVG Export Plug-In . SVG Version: 6.00 Build 0)  -->
<!DOCTYPE svg PUBLIC "-//W3C//DTD SVG 1.1//EN" "http://www.w3.org/Graphics/SVG/1.1/DTD/svg11.dtd">
<svg version="1.1" xmlns="http://www.w3.org/2000/svg" xmlns:xlink="http://www.w3.org/1999/xlink" x="0px" y="0px" width="500px"
	 height="400px" viewBox="0 0 500 400" enable-background="new 0 0 500 400" xml:space="preserve">
<g id="Layer_1">
	<g id="Layer_1_1_" display="none">
		
			<image display="inline" overflow="visible" enable-background="new    " width="250" height="144" xlink:href="884A1FFD.png"  transform="matrix(0.9999 0 0 0.9999 138.1636 120.3955)">
		</image>
	</g>
	<g id="White_Rectangle__x28_mid_x29_">
		<g>
			<rect x="138.163" y="187.125" fill="#FFFFFF" width="249.969" height="31.875"/>
		</g>
	</g>
	<g id="Zmaj_i_Slova">
		<g>
			<rect x="138.163" y="195.833" fill="none" width="107.667" height="65"/>
		</g>
		<g enable-background="new    ">
			<path fill="#54C9EF" d="M144.09,194.642v17.83c0,0.454,0.072,0.777,0.216,0.971c0.144,0.194,0.426,0.347,0.847,0.457v0.531
				h-4.499v-0.531c0.432-0.11,0.716-0.26,0.855-0.448c0.138-0.188,0.208-0.515,0.208-0.979v-18.743c0-0.465-0.072-0.794-0.216-0.987
				c-0.144-0.194-0.426-0.341-0.847-0.44v-0.531h6.511v0.531c-0.52,0.177-0.78,0.426-0.78,0.747c0,0.222,0.26,0.637,0.78,1.245
				l13.66,15.971v-16.535c0-0.465-0.072-0.794-0.216-0.987c-0.144-0.194-0.426-0.341-0.847-0.44v-0.531h4.499v0.531
				c-0.421,0.1-0.703,0.246-0.847,0.44c-0.144,0.193-0.216,0.522-0.216,0.987v18.743c0,0.465,0.072,0.791,0.216,0.979
				c0.144,0.188,0.426,0.338,0.847,0.448v0.531h-5.231v-0.531c0.509-0.133,0.764-0.359,0.764-0.681c0-0.243-0.233-0.642-0.698-1.195
				L144.09,194.642z"/>
		</g>
		<g>
			<rect x="166" y="195.833" fill="none" width="47" height="40.333"/>
		</g>
		<g enable-background="new    ">
			<path fill="#54C9EF" d="M184.568,208.072h-12.121l-1.993,4.3c-0.188,0.409-0.282,0.697-0.282,0.863
				c0,0.332,0.328,0.554,0.983,0.664v0.531H166.1v-0.531c0.454-0.077,0.799-0.243,1.038-0.498c0.238-0.255,0.55-0.808,0.938-1.66
				l8.301-17.913c0.199-0.432,0.299-0.725,0.299-0.88c0-0.288-0.271-0.504-0.813-0.647v-0.531h5.512v0.531
				c-0.542,0.177-0.813,0.409-0.813,0.697c0,0.122,0.1,0.398,0.299,0.83l7.952,17.266c0.586,1.272,0.974,2.02,1.162,2.241
				c0.188,0.222,0.598,0.409,1.229,0.564v0.531h-5.379v-0.531c0.644-0.089,0.966-0.332,0.966-0.73c0-0.177-0.122-0.521-0.365-1.029
				L184.568,208.072z M183.61,205.914l-5.103-11.197l-5.097,11.197H183.61z"/>
		</g>
		<g>
			<rect x="189.5" y="196" fill="none" width="72.333" height="55.333"/>
		</g>
		<g enable-background="new    ">
			<path fill="#54C9EF" d="M195.211,193.896v12.534c0,1.483,0.077,2.526,0.232,3.129c0.155,0.604,0.476,1.127,0.963,1.569
				c1.184,1.063,3.392,1.594,6.624,1.594c3.52,0,5.827-0.625,6.923-1.876c0.365-0.421,0.608-0.922,0.73-1.502
				c0.122-0.582,0.183-1.553,0.183-2.914v-12.534c0-0.454-0.072-0.777-0.216-0.972c-0.144-0.193-0.426-0.346-0.847-0.456v-0.531
				h4.499v0.531c-0.421,0.1-0.703,0.246-0.847,0.44c-0.144,0.193-0.216,0.522-0.216,0.987v13.049c0,1.604-0.155,2.828-0.465,3.669
				c-0.576,1.505-1.658,2.612-3.246,3.32c-1.588,0.708-3.788,1.063-6.599,1.063c-4.206,0-7.083-0.813-8.633-2.44
				c-0.631-0.653-1.071-1.397-1.32-2.233c-0.249-0.835-0.374-1.961-0.374-3.378v-13.049c0-0.465-0.072-0.794-0.216-0.987
				c-0.144-0.194-0.426-0.341-0.847-0.44v-0.531h4.731v0.531c-0.421,0.11-0.703,0.263-0.847,0.456
				C195.283,193.118,195.211,193.441,195.211,193.896z"/>
		</g>
		<g>
			<rect x="216" y="196.5" fill="none" width="65" height="63.667"/>
		</g>
		<g enable-background="new    ">
			<path fill="#54C9EF" d="M228.567,194.595v18.544c0,0.454,0.072,0.777,0.216,0.971c0.144,0.194,0.426,0.347,0.847,0.457v0.531
				h-4.731v-0.531c0.42-0.11,0.703-0.26,0.847-0.448c0.144-0.188,0.216-0.515,0.216-0.979v-18.544h-7.67
				c-0.465,0-0.794,0.07-0.988,0.211c-0.194,0.141-0.34,0.425-0.44,0.852h-0.531v-4.283h0.531c0.1,0.425,0.246,0.708,0.44,0.85
				c0.193,0.142,0.523,0.213,0.988,0.213h17.946c0.465,0,0.794-0.071,0.988-0.213c0.193-0.142,0.34-0.425,0.44-0.85h0.531v4.283
				h-0.531c-0.1-0.427-0.247-0.711-0.44-0.852c-0.194-0.141-0.523-0.211-0.988-0.211H228.567z"/>
		</g>
		<g>
			<rect x="238" y="196.5" fill="none" width="77" height="70"/>
		</g>
		<g enable-background="new    ">
			<path fill="#54C9EF" d="M241.553,213.139v-18.743c0-0.465-0.072-0.794-0.216-0.987c-0.144-0.194-0.426-0.341-0.847-0.44v-0.531
				h4.731v0.531c-0.421,0.11-0.703,0.26-0.847,0.448c-0.144,0.188-0.216,0.515-0.216,0.979v18.743c0,0.465,0.069,0.791,0.208,0.979
				c0.138,0.188,0.423,0.338,0.855,0.448v0.531h-4.731v-0.531c0.432-0.11,0.716-0.26,0.855-0.448
				C241.483,213.93,241.553,213.604,241.553,213.139z"/>
		</g>
		<g>
			<rect x="247.5" y="196.833" fill="none" width="54" height="46.333"/>
		</g>
		<g enable-background="new    ">
			<path fill="#54C9EF" d="M273.879,194.729l-2.457,4.101l-0.447-0.266c0.1-0.332,0.148-0.592,0.148-0.78
				c0-0.454-0.708-1.023-2.125-1.71c-1.947-0.952-4.072-1.428-6.375-1.428c-3.099,0-5.611,0.857-7.537,2.571
				c-1.959,1.747-2.938,4.008-2.938,6.784c0,2.765,1.018,5.059,3.055,6.883c1.969,1.781,4.398,2.671,7.287,2.671
				c2.822,0,5.313-0.821,7.471-2.466c0.975-0.741,1.461-1.267,1.461-1.576c0-0.155-0.094-0.41-0.281-0.764l0.398-0.316l2.955,3.586
				l-0.416,0.333c-0.31-0.276-0.564-0.415-0.764-0.415c-0.121,0-0.332,0.116-0.631,0.349c-1.018,0.766-1.861,1.34-2.531,1.723
				s-1.402,0.707-2.199,0.973c-1.65,0.565-3.465,0.849-5.445,0.849c-3.818,0-6.924-1.063-9.314-3.188
				c-2.512-2.225-3.768-5.063-3.768-8.517c0-2.723,0.786-5.08,2.358-7.072c2.457-3.121,6.137-4.682,11.039-4.682
				c3.243,0,6.381,0.857,9.414,2.573c0.199,0.11,0.337,0.166,0.414,0.166c0.145,0,0.404-0.21,0.781-0.631L273.879,194.729z"/>
		</g>
		<g>
			<rect x="274.5" y="195.833" fill="none" width="64" height="65"/>
		</g>
		<g enable-background="new    ">
			<path fill="#54C9EF" d="M293.068,208.073h-12.121l-1.993,4.3c-0.188,0.409-0.282,0.697-0.282,0.863
				c0,0.332,0.328,0.554,0.982,0.664v0.531H274.6V213.9c0.453-0.077,0.799-0.243,1.037-0.498s0.551-0.808,0.938-1.66l8.301-17.913
				c0.199-0.432,0.299-0.725,0.299-0.88c0-0.288-0.271-0.504-0.813-0.647v-0.531h5.512v0.531c-0.543,0.177-0.813,0.409-0.813,0.697
				c0,0.122,0.1,0.398,0.299,0.83l7.952,17.266c0.586,1.272,0.974,2.02,1.162,2.241c0.188,0.222,0.598,0.409,1.229,0.564v0.531
				h-5.379V213.9c0.645-0.089,0.966-0.332,0.966-0.73c0-0.177-0.122-0.521-0.365-1.029L293.068,208.073z M292.11,205.915
				l-5.103-11.197l-5.098,11.197H292.11z"/>
		</g>
		<g>
			<rect x="306.5" y="195.833" fill="none" width="82" height="63"/>
		</g>
		<g enable-background="new    ">
			<path fill="#54C9EF" d="M327.186,202.66c2.634,0.886,3.951,2.712,3.951,5.479c0,1.339-0.354,2.518-1.063,3.536
				c-0.697,1.007-1.639,1.719-2.822,2.133c-1.185,0.416-2.872,0.623-5.063,0.623H308.99v-0.531c0.42-0.11,0.703-0.26,0.847-0.448
				s0.216-0.515,0.216-0.979v-18.743c0-0.465-0.072-0.794-0.216-0.987c-0.144-0.194-0.427-0.341-0.847-0.44v-0.531h13.514
				c1.328,0,2.426,0.105,3.295,0.315s1.636,0.559,2.3,1.046c1.527,1.096,2.291,2.667,2.291,4.715
				C330.39,200.026,329.321,201.631,327.186,202.66z M312.659,201.548h8.732c1.239,0,2.167-0.039,2.78-0.116
				c0.615-0.077,1.182-0.222,1.702-0.432c0.642-0.266,1.14-0.675,1.494-1.229s0.531-1.195,0.531-1.926
				c0-0.974-0.315-1.804-0.946-2.49c-0.51-0.542-1.17-0.916-1.984-1.12c-0.813-0.205-2.061-0.308-3.743-0.308h-8.566V201.548z
				 M312.659,212.272h9.098c1.306,0,2.274-0.041,2.905-0.125c0.631-0.082,1.217-0.246,1.76-0.489
				c0.664-0.31,1.182-0.774,1.553-1.395c0.37-0.62,0.556-1.339,0.556-2.158c0-1.085-0.327-2.009-0.979-2.772
				c-0.543-0.631-1.234-1.06-2.075-1.287c-0.841-0.227-2.136-0.34-3.885-0.34h-8.932V212.272z"/>
		</g>
		<g>
			<rect x="333" y="195.833" fill="none" width="53.667" height="38.667"/>
		</g>
		<g enable-background="new    ">
			<path fill="#54C9EF" d="M351.568,208.073h-12.121l-1.993,4.3c-0.188,0.409-0.282,0.697-0.282,0.863
				c0,0.332,0.328,0.554,0.982,0.664v0.531H333.1V213.9c0.453-0.077,0.799-0.243,1.037-0.498s0.551-0.808,0.938-1.66l8.301-17.913
				c0.199-0.432,0.299-0.725,0.299-0.88c0-0.288-0.271-0.504-0.813-0.647v-0.531h5.512v0.531c-0.543,0.177-0.813,0.409-0.813,0.697
				c0,0.122,0.1,0.398,0.299,0.83l7.952,17.266c0.586,1.272,0.974,2.02,1.162,2.241c0.188,0.222,0.598,0.409,1.229,0.564v0.531
				h-5.379V213.9c0.645-0.089,0.966-0.332,0.966-0.73c0-0.177-0.122-0.521-0.365-1.029L351.568,208.073z M350.61,205.915
				l-5.103-11.197l-5.098,11.197H350.61z"/>
		</g>
		<g>
			<rect x="357.334" y="195.833" fill="none" width="77.666" height="53.667"/>
		</g>
		<g enable-background="new    ">
			<path fill="#54C9EF" d="M363.493,204.238v8.236c0,0.453,0.071,0.776,0.216,0.97c0.144,0.193,0.426,0.346,0.847,0.456v0.531
				h-4.731V213.9c0.42-0.11,0.703-0.26,0.847-0.448s0.216-0.515,0.216-0.979v-18.743c0-0.465-0.072-0.794-0.216-0.987
				c-0.144-0.194-0.427-0.341-0.847-0.44v-0.531h12.435c1.704,0,3.052,0.092,4.042,0.274s1.852,0.501,2.582,0.956
				c0.752,0.465,1.361,1.103,1.826,1.911c0.531,0.92,0.797,1.956,0.797,3.109c0,1.729-0.572,3.139-1.719,4.23
				c-1.145,1.092-2.72,1.715-4.723,1.87l5.761,8.949c0.343,0.553,0.841,0.829,1.494,0.829v0.531h-5.245V213.9
				c0.541-0.088,0.813-0.243,0.813-0.464c0-0.11-0.193-0.47-0.58-1.077l-5.148-8.121H363.493z M363.493,202.08h9.181
				c1.25,0,2.193-0.053,2.83-0.158c0.637-0.104,1.198-0.296,1.686-0.572c1.14-0.664,1.71-1.776,1.71-3.337
				c0-1.571-0.587-2.689-1.76-3.354c-0.521-0.288-1.099-0.481-1.735-0.581s-1.624-0.149-2.963-0.149h-8.948V202.08z"/>
		</g>
		<g>
			<path fill="#54C9EF" d="M175.667,182.667c0,0,7.667-30,40.333-24.667l2.125,0.25L213,155.125c0,0,2.25-2.625,5.875-0.75
				c0,0,14.625,8.125,17.125,12.625c0,0,12.792,17.417,16.417,15.667l-30.75-1c0,0-5.667-6.917-8.083-8.042
				c0,0-6.583-3.5-9.708,2.25c0,0-1-2.25-1.25-5.25c0,0-1.5-3.375-5,3.375c0,0-1.875,3.833-3.625,3.75c0,0-2.898-0.269-3.75,0.125
				c-1.201,0.555-3.375,3.708-2.25,4.792"/>
			<path fill="#54C9EF" d="M251.896,183.276c-0.276,0-0.574-0.054-0.893-0.155l-29.579-0.962l-0.144-0.175
				c-0.056-0.068-5.622-6.841-7.907-7.906c-0.275-0.144-6.21-3.204-9.058,2.036l-0.484,0.891l-0.412-0.927
				c-0.042-0.094-1.015-2.313-1.283-5.31c-0.082-0.141-0.317-0.479-0.683-0.487c-0.369-0.029-1.521,0.356-3.383,3.949
				c-0.202,0.413-2.042,4.094-4.093,4.02c-1.17-0.107-3.014-0.152-3.516,0.079c-0.697,0.322-2.036,1.963-2.249,3.226
				c-0.06,0.355-0.014,0.608,0.136,0.752l-0.694,0.72c-0.276-0.266-0.574-0.766-0.427-1.638c0.258-1.53,1.789-3.493,2.814-3.968
				c0.928-0.428,3.5-0.216,4.006-0.169c1.049,0.061,2.565-2.317,3.129-3.472c1.592-3.069,2.987-4.583,4.312-4.498
				c0.871,0.026,1.412,0.729,1.595,1.14l0.041,0.162c0.146,1.756,0.563,3.26,0.866,4.167c3.484-4.857,9.763-1.604,9.829-1.567
				c2.277,1.06,7.166,6.875,8.09,7.991l27.071,0.88c-4.838-3.333-11.715-12.488-13.383-14.759
				c-2.437-4.377-16.82-12.403-16.965-12.484c-2.354-1.217-4.042-0.35-4.804,0.233l6.509,3.969l-4.396-0.517
				c-31.841-5.194-39.714,23.999-39.79,24.294l-0.969-0.248c0.078-0.304,8.136-30.266,40.714-25.066l-3.659-2.231l0.383-0.446
				c0.024-0.03,2.554-2.902,6.484-0.869c0.616,0.342,14.792,8.254,17.333,12.827c4.182,5.688,11.201,14.016,14.527,15.362
				l3.502,0.114l-1.831,0.884C252.412,183.225,252.164,183.276,251.896,183.276z"/>
		</g>
		<g>
			<path fill="#54C9EF" d="M151.25,216c0,0-0.75-9.875,3.75,0.625c0,0,2.375,7.25,5.875,9c0,0,6.375,4.25,8.875-1.375l11.5,0.125
				c0,0-1.25,7.209-7.625,9.5c0,0-8.25,3.625-14.75-4.125C158.875,229.75,152,222,151.25,216z"/>
			<path fill="#54C9EF" d="M168.972,235.222c-2.811,0-6.91-0.894-10.48-5.15c-0.276-0.311-6.978-7.926-7.738-14.009
				c-0.066-0.86-0.213-3.65,0.55-4.474c0.229-0.246,0.483-0.298,0.657-0.298c0.673,0,1.563,0.622,3.499,5.137
				c0.039,0.112,2.367,7.114,5.639,8.75c0.075,0.046,2.27,1.486,4.468,1.486c1.725,0,2.943-0.856,3.726-2.617l0.134-0.301
				l12.417,0.136l-0.101,0.578c-0.053,0.307-1.375,7.523-7.949,9.886C173.744,234.369,171.77,235.222,168.972,235.222z
				 M151.943,212.289c-0.184,0.223-0.323,1.985-0.195,3.673c0.72,5.752,7.433,13.38,7.5,13.456c3.332,3.973,7.125,4.804,9.723,4.804
				c2.577,0,4.434-0.797,4.452-0.805c5.023-1.806,6.748-6.837,7.199-8.549l-10.558-0.114c-0.95,1.905-2.499,2.91-4.499,2.91
				c-2.506,0-4.87-1.557-4.969-1.623c-3.591-1.791-5.973-8.956-6.073-9.261C152.729,212.596,152.019,212.308,151.943,212.289z"/>
		</g>
		<g>
			<path fill="#54C9EF" d="M238.746,170.569c0,0,10.504,9.852,13.296,8.598c0,0-1.543,1.842-4.542,1.087"/>
		</g>
		<g>
			<path fill="#54C9EF" d="M323.084,240.583c0,0,5.439,2.972,6.416,2.306c1.227-0.837,0.375-2.889-4.375-4.014
				c0,0-1.875-3.125,3.375-0.375c0,0,2.875,1.125,2.875,2.75c0,0,3.625-1.471-0.5-7.484c0,0-5.5-6.516-13-4.266
				c0,0-2.25,0.25-3.875-0.375c0,0,3.25-4.625,5.5-4.75s-79.375,0-79.375,0v2.958c0,0-3.5,5.735-6,7.39c0,0-3.375,6.277,3.875,6.277
				h5.375c0,0,0.663-0.875,2.019-1l7.023,0.125c0,0,0.208,0.875,2.333,0.875h9.875c0,0,2.125-0.625,3.875,0h1.75
				c0,0,15.083-10.335,19.375-4.834c0,0,2.625,4.084,7.25,4.459c0,0,2.625,1.375,6.125-0.125c0,0,2.236-0.611,11.25,0.625
				C318.334,241.686,318.834,236.583,323.084,240.583z"/>
		</g>
		<g>
			<path fill="#54C9EF" d="M309.469,123.641c0,0-4.094,1.297-6.781,3.609c0,0-1.011,0.575-5.688-2.063
				c-2.027-1.144-8.238-2.065-9.313,0c-0.877,1.685,2.5,3.563,5.875,4.813c0,0-19.375,0.25-25.75,13.375
				c0,0-11.125-15.188-18.625-17c0,0-3.75-0.688-8.063,1.063c0,0-1.208,0.688-4.313,1.25l-19.125-0.125c0,0-12.938-2.75-13.125-4
				c0,0-1.25,3.5,3.438,7.063c0,0,17,8.25,17.063,10.438l0.188,4.438c0,0-2.813,2.875,1.438,2.313l10.438-0.25c0,0,3.813,0.688,4,6
				l0.313,4.125c0,0,3.25,3.5,7.5,0.438c0,0,5.5-2.375,8,2.375c0,0,4.125,11.438,9.813,12.125l6.375,0.438l-1.458-4.146
				c0,0,1.927,0.271,3.208,2.427c0,0,2.75,3.75,4.75,3.969h1.313l-2.813-3.688c0,0,4.625,0.438,4.813,2.5v3.938l-0.438,3.125h37.125
				c0,0-3.938-6.625-11-11.25l-17.688-12.063c0,0-6.688-4.563-6.813-7.313c0,0-1.688-8.813,5.25-8.813l4.563-0.063
				c0,0,4.313,0.5,4.375,5c0,0,8.688,6.125,13.688,9.063l12.938,7c0,0,4.125,1.563,5.75-1.5l0.313-3.813L329.625,159
				c0,0-3.375,0-7.938-3.375l-11.938-6.938c0,0-0.938-1.063-0.375-1.438c0,0,10.563,0,20.938,7.25v2.625l1.875-0.938v2.5
				l2.188-0.688c0,0,4.125-2.188,4.5-3c0,0,1.75-4.188-0.688-6.125c0,0-13.644-7.063-13.76-9.375c0,0-1.24-2.063-1.615-4.25
				c0,0-1.938-4.125-2.563-4.938c0,0-1.75-2.313-0.063-3.875c0,0,1.125,0.125,0.938-1.75c0,0,0.078-2-0.938-2.313l-0.688-0.06
				c0,0-0.078-1.55-1.375-1.92c0,0-1.596-0.048-2,0.245c-0.8,0.581-0.87,2.421-3.922,0.266
				C311.374,120.321,309.031,120.488,309.469,123.641z"/>
		</g>
		<g>
			<path fill="#54C9EF" d="M331.277,240.693c0,0,1.269-0.016,1.324,1.426c0.053,1.441,0.756-1.582,0.16-2.491"/>
		</g>
		<g>
			<polygon fill="#54C9EF" points="329.295,242.922 330.703,243.172 329.796,241.594 			"/>
		</g>
	</g>
	<g id="Layer_7">
		<g>
			<path fill="#54C9EF" d="M278.322,237.85c0,0,2.088-0.604,2.836,1.75c0.746,2.355,0.525-2.957-0.87-4.186"/>
		</g>
		<g>
			<path fill="#54C9EF" d="M276.779,239.727c0,0,2.14-0.387,2.641,2.033s0.828-2.888-0.436-4.253"/>
		</g>
		<g>
			<path fill="#54C9EF" d="M274.8,240.152c0,0,2.163,0.22,1.979,2.683c-0.187,2.465,1.592-2.547,0.755-4.208"/>
		</g>
		<g>
			<rect x="280.684" y="232.625" fill="#54C9EF" width="6.191" height="2.789"/>
		</g>
		<g>
			<path fill="#54C9EF" d="M284.697,235.459c0,0,2.088-0.604,2.836,1.75c0.746,2.355,0.525-2.957-0.87-4.186"/>
		</g>
		<g>
			<path fill="#54C9EF" d="M282.579,235.459c0,0,2.088-0.604,2.836,1.75c0.747,2.355,0.526-2.957-0.87-4.186"/>
		</g>
	</g>
	<g id="svj">
		<g>
			<g>
				<path fill="#FFFFFF" d="M273.5,153c0,0-0.143-0.525-0.229-1.472c-0.076-0.943-0.142-2.319,0.139-3.946
					c0.283-1.614,0.861-3.512,2.046-5.251c0.58-0.873,1.315-1.681,2.14-2.413c0.844-0.706,1.771-1.343,2.766-1.845
					c0.486-0.272,1.015-0.451,1.519-0.679c0.519-0.189,1.042-0.354,1.56-0.524c0.525-0.128,1.049-0.255,1.565-0.38
					c0.522-0.085,1.039-0.17,1.548-0.253c1.021-0.116,2.01-0.209,2.946-0.205c0.937-0.038,1.819,0.009,2.634,0.04
					c0.814,0.008,1.555,0.132,2.213,0.193c0.656,0.061,1.223,0.162,1.69,0.235c0.933,0.16,1.465,0.251,1.465,0.251
					s-0.54-0.021-1.483-0.058c-0.472-0.023-1.041-0.065-1.697-0.057c-0.656,0.012-1.395-0.034-2.196-0.001
					c-0.804,0.021-1.673,0.03-2.586,0.126c-0.916,0.054-1.868,0.216-2.854,0.348c-0.485,0.096-0.98,0.193-1.481,0.292
					c-0.491,0.13-0.989,0.263-1.49,0.396c-0.489,0.167-0.985,0.33-1.474,0.514c-0.471,0.221-0.969,0.395-1.422,0.653
					c-0.938,0.46-1.803,1.044-2.594,1.69c-0.764,0.675-1.484,1.383-2.047,2.183c-0.558,0.797-1.049,1.611-1.406,2.44
					c-0.354,0.829-0.627,1.645-0.81,2.419c-0.356,1.548-0.487,2.888-0.493,3.826C273.443,152.46,273.5,153,273.5,153z"/>
			</g>
		</g>
		<g>
			<g>
				<path fill="#FFFFFF" d="M186.5,170c0,0,0.952-1.169,2.678-2.629c0.861-0.73,1.915-1.527,3.107-2.291
					c0.592-0.388,1.231-0.748,1.876-1.119c0.67-0.325,1.333-0.694,2.03-0.991c0.704-0.281,1.393-0.599,2.11-0.814
					c0.706-0.247,1.409-0.459,2.107-0.604c0.69-0.175,1.363-0.313,2.014-0.376c0.647-0.082,1.254-0.181,1.825-0.166
					c0.568-0.016,1.087-0.014,1.545-0.012c0.458,0.047,0.856,0.088,1.185,0.123c0.653,0.073,1.021,0.128,1.021,0.128
					s-0.377,0.033-1.028,0.066c-0.324,0.015-0.717,0.034-1.168,0.055c-0.449,0.069-0.952,0.145-1.5,0.211
					c-0.55,0.047-1.131,0.208-1.75,0.33c-0.622,0.109-1.259,0.3-1.919,0.492c-0.668,0.164-1.33,0.425-2.011,0.663
					c-0.688,0.217-1.352,0.539-2.029,0.818c-0.68,0.276-1.328,0.626-1.984,0.93c-0.629,0.358-1.278,0.659-1.87,1.016
					c-1.201,0.685-2.293,1.378-3.218,1.996c-0.92,0.624-1.69,1.149-2.204,1.551C186.797,169.774,186.5,170,186.5,170z"/>
			</g>
		</g>
		<g>
			<g>
				<path fill="#FFFFFF" d="M237.75,132.25c0,0,0.305-0.168,0.871-0.394c0.564-0.225,1.382-0.53,2.395-0.801
					c0.51-0.114,1.059-0.276,1.655-0.358c0.592-0.11,1.222-0.204,1.881-0.244c0.655-0.077,1.34-0.064,2.035-0.07
					c0.693,0.034,1.401,0.083,2.104,0.175c0.693,0.153,1.404,0.222,2.066,0.462c0.675,0.194,1.326,0.413,1.923,0.721
					c0.301,0.142,0.596,0.282,0.887,0.418c0.275,0.161,0.533,0.346,0.789,0.511c0.513,0.33,0.99,0.647,1.361,1.032
					c0.391,0.358,0.748,0.683,1.038,0.994c0.263,0.337,0.49,0.631,0.679,0.873c0.371,0.484,0.567,0.765,0.567,0.765
					s-0.269-0.228-0.712-0.635c-0.221-0.204-0.484-0.451-0.791-0.734c-0.337-0.241-0.719-0.513-1.133-0.809
					c-0.395-0.321-0.887-0.568-1.393-0.844c-0.256-0.135-0.51-0.288-0.781-0.417c-0.28-0.112-0.567-0.227-0.858-0.343
					c-0.567-0.269-1.202-0.418-1.834-0.601c-0.622-0.218-1.3-0.267-1.954-0.404c-0.662-0.097-1.334-0.156-1.994-0.2
					c-0.663,0.003-1.316-0.066-1.951-0.017c-0.635,0.015-1.249,0.044-1.831,0.104c-0.584,0.037-1.13,0.13-1.641,0.181
					c-1.012,0.155-1.865,0.283-2.451,0.425C238.087,132.164,237.75,132.25,237.75,132.25z"/>
			</g>
		</g>
		<g>
			<g>
				<path fill="#FFFFFF" d="M239.75,235c0,0,0.033,0.373,0.122,0.829c0.09,0.47,0.289,0.948,0.659,1.229
					c0.102,0.066,0.183,0.159,0.312,0.207c0.117,0.053,0.224,0.137,0.359,0.174c0.129,0.039,0.243,0.117,0.375,0.146
					c0.127,0.035,0.249,0.081,0.363,0.125c0.23,0.077,0.436,0.133,0.58,0.192c0.145,0.056,0.23,0.097,0.23,0.097
					s-0.08,0.043-0.226,0.103c-0.146,0.053-0.356,0.144-0.622,0.183c-0.267,0.034-0.584,0.073-0.936,0.004
					c-0.352-0.039-0.731-0.206-1.07-0.457c-0.152-0.144-0.309-0.302-0.414-0.483c-0.121-0.179-0.178-0.377-0.224-0.564
					c-0.075-0.379-0.045-0.725,0.043-0.99C239.46,235.252,239.75,235,239.75,235z"/>
			</g>
		</g>
		<g>
			<g>
				<path fill="#FFFFFF" d="M180.458,222.667c0,0-0.233,0.649-0.716,1.545c-0.479,0.896-1.191,2.046-2.023,3.113
					c-0.414,0.532-0.85,1.055-1.296,1.512c-0.421,0.474-0.886,0.868-1.286,1.19c-0.204,0.16-0.366,0.32-0.566,0.418
					c-0.185,0.111-0.351,0.195-0.484,0.267c-0.268,0.14-0.419,0.205-0.419,0.205s0.11-0.134,0.304-0.367
					c0.096-0.106,0.213-0.239,0.347-0.391c0.141-0.132,0.257-0.349,0.414-0.538c0.6-0.793,1.399-1.852,2.198-2.908
					c0.823-1.043,1.663-2.083,2.345-2.829C179.947,223.133,180.458,222.667,180.458,222.667z"/>
			</g>
		</g>
		<g>
			<g>
				<path fill="#FFFFFF" d="M305.5,172.75c0,0,1.324,0.561,3.105,1.783c1.765,1.219,4.002,3.14,5.563,5.642
					c0.775,1.243,1.378,2.617,1.645,3.983c0.152,0.676,0.211,1.352,0.205,1.985c0.006,0.633-0.056,1.234-0.174,1.77
					c-0.08,0.544-0.268,1.016-0.396,1.437c-0.176,0.407-0.318,0.762-0.459,1.043c-0.305,0.553-0.487,0.856-0.487,0.856
					s0.104-0.346,0.31-0.929c0.09-0.295,0.174-0.663,0.279-1.074c0.057-0.425,0.161-0.892,0.188-1.412
					c0.027-0.258,0.041-0.526,0.027-0.805c0-0.278,0.006-0.563-0.033-0.856c-0.021-0.293-0.051-0.593-0.117-0.895
					c-0.049-0.304-0.111-0.611-0.198-0.919c-0.147-0.623-0.404-1.235-0.657-1.857c-0.285-0.609-0.598-1.221-0.977-1.798
					c-1.453-2.349-3.486-4.326-5.066-5.721c-0.798-0.693-1.477-1.269-1.974-1.64C305.783,172.966,305.5,172.75,305.5,172.75z"/>
			</g>
		</g>
		<g>
			<g>
				<path fill="#FFFFFF" d="M306.5,230.917c0,0,0.275-0.151,0.736-0.438c0.234-0.136,0.511-0.315,0.824-0.524
					c0.314-0.204,0.648-0.47,1.03-0.724c0.356-0.293,0.769-0.571,1.16-0.92c0.403-0.334,0.812-0.703,1.21-1.105
					c0.43-0.374,0.771-0.852,1.175-1.28c0.351-0.47,0.728-0.938,1.019-1.456c0.289-0.518,0.613-1.02,0.791-1.576
					c0.107-0.271,0.215-0.541,0.318-0.807c0.067-0.277,0.135-0.553,0.198-0.822c0.165-0.537,0.192-1.076,0.238-1.59
					c0.018-0.257,0.061-0.508,0.057-0.751c-0.014-0.243-0.026-0.479-0.039-0.705c-0.045-0.45-0.005-0.883-0.086-1.247
					c-0.069-0.369-0.13-0.689-0.18-0.955c-0.097-0.535-0.142-0.85-0.142-0.85s0.127,0.282,0.328,0.794
					c0.098,0.258,0.219,0.571,0.355,0.931c0.152,0.358,0.193,0.797,0.293,1.265c0.044,0.235,0.09,0.481,0.138,0.737
					c0.036,0.256,0.013,0.525,0.021,0.803c0.004,0.554,0.031,1.145-0.119,1.738c-0.057,0.299-0.111,0.604-0.168,0.914
					c-0.085,0.301-0.204,0.596-0.313,0.896c-0.191,0.616-0.527,1.175-0.838,1.745c-0.33,0.558-0.744,1.059-1.133,1.558
					c-0.436,0.459-0.85,0.929-1.316,1.304c-0.439,0.406-0.908,0.746-1.358,1.055c-0.437,0.328-0.899,0.562-1.302,0.81
					c-0.836,0.448-1.563,0.749-2.078,0.94C306.807,230.848,306.5,230.917,306.5,230.917z"/>
			</g>
		</g>
		<g>
			<path fill="#FFFFFF" d="M318.557,136.271c-0.226,0.477-1.425,0.205-2.632-0.366c-1.206-0.57-1.849-2.03-1.813-2.209
				c0.046-0.231,1.425-0.088,2.631,0.482C317.948,134.749,318.781,135.793,318.557,136.271z"/>
		</g>
		<g>
			<g>
				<path fill="#FFFFFF" d="M336.375,149.75c0,0,0.262-0.012,0.568,0.125c0.311,0.128,0.668,0.408,0.896,0.818
					c0.105,0.207,0.188,0.443,0.203,0.676c0.016,0.237-0.031,0.464-0.113,0.634c-0.171,0.351-0.445,0.429-0.431,0.435
					c0,0-0.015-0.059-0.041-0.163c-0.013-0.094-0.062-0.219-0.101-0.339c-0.053-0.124-0.113-0.243-0.174-0.369
					c-0.078-0.123-0.132-0.26-0.223-0.396c-0.148-0.282-0.313-0.605-0.422-0.89C336.428,150.001,336.375,149.75,336.375,149.75z"/>
			</g>
		</g>
		<g>
			
				<ellipse transform="matrix(-0.3154 -0.949 0.949 -0.3154 136.3073 574.3838)" fill="#54C9EF" cx="275.338" cy="238.025" rx="3.406" ry="5.516"/>
		</g>
	</g>
	<g id="Linije_Dolje">
		<g>
			<rect x="138.163" y="219.333" fill="#54C9EF" width="249.969" height="2"/>
		</g>
		<g>
			<rect x="138.163" y="222.666" fill="#54C9EF" width="249.969" height="2"/>
		</g>
	</g>
	<g id="Linije_Gore">
		<g>
			<rect x="138.163" y="181.667" fill="#54C9EF" width="249.969" height="2"/>
		</g>
		<g>
			<rect x="138.163" y="185" fill="#54C9EF" width="249.969" height="2"/>
		</g>
	</g>
</g>
<g id="Layer_2">
</g>
</svg>
